<?xml version="1.0" encoding="UTF-8" standalone="no"?>
<svg
   xmlns:dc="http://purl.org/dc/elements/1.1/"
   xmlns:cc="http://creativecommons.org/ns#"
   xmlns:rdf="http://www.w3.org/1999/02/22-rdf-syntax-ns#"
   xmlns:svg="http://www.w3.org/2000/svg"
   xmlns="http://www.w3.org/2000/svg"
   xmlns:sodipodi="http://sodipodi.sourceforge.net/DTD/sodipodi-0.dtd"
   xmlns:inkscape="http://www.inkscape.org/namespaces/inkscape"
   width="210mm"
   height="297mm"
   viewBox="0 0 210 297"
   version="1.1"
   id="svg8"
   sodipodi:docname="azul.svg"
   inkscape:version="1.0.2-2 (e86c870879, 2021-01-15)">
  <defs
     id="defs2" />
  <sodipodi:namedview
     id="base"
     pagecolor="#ffffff"
     bordercolor="#666666"
     borderopacity="1.0"
     inkscape:pageopacity="0.0"
     inkscape:pageshadow="2"
     inkscape:zoom="0.35"
     inkscape:cx="400"
     inkscape:cy="560"
     inkscape:document-units="mm"
     inkscape:current-layer="layer1"
     inkscape:document-rotation="0"
     showgrid="false"
     inkscape:window-width="1920"
     inkscape:window-height="1017"
     inkscape:window-x="-8"
     inkscape:window-y="-8"
     inkscape:window-maximized="1" />
  <metadata
     id="metadata5">
    <rdf:RDF>
      <cc:Work
         rdf:about="">
        <dc:format>image/svg+xml</dc:format>
        <dc:type
           rdf:resource="http://purl.org/dc/dcmitype/StillImage" />
      </cc:Work>
    </rdf:RDF>
  </metadata>
  <g
     inkscape:label="Capa 1"
     inkscape:groupmode="layer"
     id="layer1">
    <g
       id="g851"
       transform="matrix(0.07000434,0,0,0.07000434,43.686575,61.315112)">
      <path
         class="st0"
         d="m 706.5,544.9 c -11.4,0 -20.7,9.3 -20.7,20.7 0,1.6 0.2,3.1 0.5,4.5 -172.9,73.4 -403.8,127.4 -482.8,109 -36.6,-8.2 -42.4,-25.9 -17.3,-53.9 8.2,-9.9 12.3,-15.6 9,-13.6 -79.8,55.9 -74.4,89.2 14.4,88.8 l 38.3,-0.4 4.5,30.4 c 4.5,32.1 18.5,74.4 25.5,79 2.5,1.2 16,1.2 30.4,-0.4 l 25.9,-2.5 -7.4,-13.2 C 315.7,774 301.3,723.4 302.9,708.2 l 1.2,-13.2 55.5,-11.9 c 114.5,-23.6 237.6,-63.2 328.1,-108.5 3.4,6.8 10.4,11.6 18.6,11.6 11.4,0 20.7,-9.3 20.7,-20.7 0.3,-11.3 -9.1,-20.6 -20.5,-20.6 z m 0,33.4 c -7,0 -12.6,-5.7 -12.6,-12.6 0,-7 5.7,-12.6 12.6,-12.6 7,0 12.6,5.7 12.6,12.6 0,6.9 -5.6,12.6 -12.6,12.6 z"
         id="path836" />
      <path
         class="st1"
         d="m 794.9,912 c -52.6,29.2 -144.4,46.9 -208.9,39.9 -34.5,-3.7 -104.9,-20.6 -101.2,-24.3 0.8,-0.8 30.8,-11.5 67,-23.4 56.2,-19.1 135.4,-51.4 154.9,-63.4 3.8,5 9.8,8.2 16.5,8.2 11.4,0 20.7,-9.3 20.7,-20.7 0,-11.4 -9.3,-20.7 -20.7,-20.7 -11.4,0 -20.7,9.3 -20.7,20.7 0,3.5 0.9,6.7 2.4,9.6 -10.7,5.4 -32.8,14.9 -52.6,22.7 -191.3,75.6 -399.4,106.5 -413.8,61.6 -2.1,-6.6 0.8,-13.2 10.7,-25.9 l 14,-17.3 -12.3,9 c -24.7,18.5 -30.4,24.3 -36.6,35.8 -7.4,14.8 -2.9,25.5 13.2,31.7 18.1,7 86.8,4.9 141.9,-4.5 l 51.4,-8.6 21.8,9 c 59.2,23.4 157.9,31.7 220.9,18.1 39.5,-8.2 90.9,-27.6 120.1,-45.2 28.2,-17.3 37.2,-26.7 11.3,-12.3 z m -71.7,-96.4 c 7,0 12.6,5.7 12.6,12.6 0,7 -5.7,12.6 -12.6,12.6 -7,0 -12.6,-5.7 -12.6,-12.6 0,-6.9 5.6,-12.6 12.6,-12.6 z"
         id="path838" />
      <path
         class="st0"
         d="m 569.5,425.4 c -12.3,0 -33.7,1.6 -47.3,3.7 -115.8,17 -221.4,95.1 -257.2,189.1 v 0 c -0.2,0.6 -0.4,1.2 -0.7,1.9 -0.3,0.9 -0.6,1.8 -1,2.6 -3.2,9.1 -5.7,17.1 -7.5,24 -0.9,3.1 -1.6,5.8 -2,8.2 -2.7,11.7 -3.2,18.2 -3.2,18.2 l 49.6,-1.7 v 0 0 l 7,-30 c 26.3,-108.6 130,-193.3 260.3,-212.2 l 24.7,-3.7 h -22.7 z"
         id="path840" />
      <path
         id="path847"
         class="st0"
         d="m 334.3,806.7 -54.6,5.7 c 0,0 -5.8,-8 -6.2,-8.8 -0.4,-0.8 60.8,3.1 60.8,3.1 z" />
      <path
         class="st1"
         d="m 868.2,619.9 c -14.4,0 -26.1,11.7 -26.1,26.1 0,4.3 1.1,8.3 2.9,11.9 -4.3,2.5 -11.4,6.7 -23.4,12.6 -177.6,83.9 -426.9,149.7 -564.2,149.3 -51.8,-0.4 -74,-5.3 -87.2,-19.3 -11.9,-12.7 -8.2,-25.9 16,-52.2 l 19.3,-21 -25.9,18.1 c -55.5,38.7 -69.1,69.9 -37.8,88 12.8,7.8 21.8,8.6 83.9,9 l 69.5,0.4 21,22.6 c 18.5,19.9 43.6,41.8 60.1,52.3 0,0 0,0 0,0 0.4,0.3 0.9,0.6 1.5,0.9 1.7,1 3.2,2 4.7,2.7 0.5,0.3 1.1,0.5 1.7,0.7 4.7,2.4 9.6,4.7 9.6,4.7 l 28.7,-7.1 c 10.5,-1.9 17.1,-3.3 20.1,-4.9 l 6.1,-1.5 -9.3,-7 c -4,-3.1 -10.2,-7.2 -18.6,-12.9 -31.3,-21 -68.3,-55.5 -64.2,-60 1.6,-1.2 23.4,-7 48.9,-12.3 141.1,-30.4 303.5,-87.2 417,-145.6 l 24.8,-13.9 c 4.8,6.4 12.4,10.6 20.9,10.6 14.4,0 26.1,-11.7 26.1,-26.1 0,-14.4 -11.7,-26.1 -26.1,-26.1 z m 0,42.4 c -9,0 -16.4,-7.3 -16.4,-16.4 0,-9 7.3,-16.4 16.4,-16.4 9,0 16.4,7.3 16.4,16.4 0,9.1 -7.4,16.4 -16.4,16.4 z"
         id="path843" />
    </g>
  </g>
  <style
     type="text/css"
     id="style833">
	.st0{fill:#00437B;}
	.st1{fill:#08A5BE;}
	.st2{font-family:'CenturyGothic';}
	.st3{font-size:39.9999px;}
</style>
</svg>
